<svg id="Group_141" data-name="Group 141" xmlns="http://www.w3.org/2000/svg" xmlns:xlink="http://www.w3.org/1999/xlink" width="1179.972" height="1122.901" viewBox="0 0 1179.972 1122.901">
  <defs>
    <clipPath id="clip-path">
      <rect id="Rectangle_1" data-name="Rectangle 1" width="1179.972" height="1122.901" fill="#0c0c0c"/>
    </clipPath>
  </defs>
  <g id="Group_2" data-name="Group 2" clip-path="url(#clip-path)">
    <path id="Path_1" data-name="Path 1" d="M595.489,249.958,764.738,2.914A6.671,6.671,0,0,1,776.908,6.87l-8.283,299.343a6.67,6.67,0,0,0,8.9,6.469L1059.662,212.3a6.671,6.671,0,0,1,7.523,10.353L884.533,459.96a6.671,6.671,0,0,0,3.4,10.468l287.253,84.623a6.672,6.672,0,0,1,0,12.8L887.935,652.473a6.671,6.671,0,0,0-3.4,10.468l182.651,237.3a6.671,6.671,0,0,1-7.523,10.353L777.53,810.219a6.67,6.67,0,0,0-8.9,6.469l8.283,299.343a6.67,6.67,0,0,1-12.171,3.956L595.489,872.943a6.671,6.671,0,0,0-11.006,0L415.235,1119.987a6.67,6.67,0,0,1-12.171-3.956l8.283-299.343a6.67,6.67,0,0,0-8.9-6.469L120.311,910.6a6.67,6.67,0,0,1-7.522-10.353l182.651-237.3a6.671,6.671,0,0,0-3.4-10.468L4.785,567.85a6.672,6.672,0,0,1,0-12.8l287.252-84.623a6.671,6.671,0,0,0,3.4-10.468l-182.651-237.3a6.671,6.671,0,0,1,7.522-10.353l282.132,100.38a6.67,6.67,0,0,0,8.9-6.469L403.064,6.87a6.671,6.671,0,0,1,12.171-3.956L584.483,249.958a6.671,6.671,0,0,0,11.006,0" transform="translate(0 0)" fill="#0c0c0c"/>
  </g>
</svg>
